# xmcd
#
# Track frame offsets: 
#        150
#        12903
#        23511
#        35829
#        49119
#        63286
#        74074
#        87065
#        100547
#        115026
#        131356
#        149318
#        165050
#        180556
#        195316
#
# Disc length: 2847 seconds
#
# Revision: 0
# Processed by: cddbd v1.5.2PL0 Copyright (c) Steve Scherf et al.
# Submitted via: ExactAudioCopy v1.0b1
#
DISCID=b50b1d0f
DTITLE=Ronnie Milsap - Music of Ronnie Milsap CD 1 (of 3)
DYEAR=2010
DGENRE=Crossover
TTITLE0=I Hate You
TTITLE1=Pure You
TTITLE2=Please Don't Tell Me How theStory Ends
TTITLE3=(I'd Be) A Legend in My Time
TTITLE4=Too Late to Worry, Too Blue to Cry
TTITLE5=Daydreams About Night Things
TTITLE6=What Goes on When the Sun Goes Down
TTITLE7=(I'm A) Stand by My Woman Man
TTITLE8=Let My Love Be Your Pillow
TTITLE9=It Was Almost Like a Song
TTITLE10=What a Difference You've Made in My Life
TTITLE11=Only One Love in My Life
TTITLE12=Let's Take the Long Way Around the World
TTITLE13=Back on My Mind Again
TTITLE14=Nobody Likes Sad Songs
EXTD=3CD SET RCA Nashville/Legacy 88697 76096 2
EXTT0=
EXTT1=
EXTT2=
EXTT3=
EXTT4=
EXTT5=
EXTT6=
EXTT7=
EXTT8=
EXTT9=
EXTT10=
EXTT11=
EXTT12=
EXTT13=
EXTT14=
PLAYORDER=
